<?xml version="1.0" encoding="UTF-8"?>
<svg fill="#fff" stroke="current" width="64.023pt" height="64.096pt" version="1.1" viewBox="0 0 64.023 64.096" xmlns="http://www.w3.org/2000/svg">
<g transform="translate(-.042669 -.097714)" stroke-width=".11446">
<path d="m62.747 61.421-9.2153-20.351c-0.13904-0.29464-0.38719-0.53385-0.68675-0.66216l-6.3203-2.6536 9.4617-19.02-12.035-18.637-24.009 0.0411-5.4673 8.5286-9.5381-7.447c-0.579-0.4538-1.4183-0.35008-1.8703 0.23071-0.45381 0.5799-0.35187 1.4183 0.22892 1.872l9.7353 7.5995-5.0625 7.8959 9.5301 18.988-6.3122 2.6741c-0.29912 0.12921-0.54591 0.37065-0.68273 0.66485l-9.146 20.383c-0.72745 0.0116-1.3145 0.60448-1.3145 1.336 0 0.7355 0.59868 1.332 1.336 1.3301l2.6679-4e-3c0.73728 0 1.332-0.59868 1.332-1.336-0.0018-0.65725-0.4793-1.2032-1.1052-1.3104l2.7287-6.0856 11.717-1.9641 11.985-0.0206 0.01388 7.9956c-0.73549 2e-3 -1.332 0.60047-1.3301 1.336 0 0.73549 0.59868 1.3341 1.3341 1.3301l2.6679-4e-3c0.73728 0 1.3341-0.59868 1.332-1.3341-0.0019-0.73951-0.60047-1.3341-1.336-1.3341l-0.01389-7.9948 11.985-0.0206 11.723 1.9239 2.7524 6.0757c-0.62595 0.11133-1.103 0.65724-1.1012 1.3144 0.0019 0.73549 0.60047 1.3341 1.336 1.3301l2.6679-4e-3c0.73549 0 1.332-0.59868 1.3301-1.3341 6.48e-4 -0.73057-0.58794-1.3212-1.3177-1.3315zm-54.43-8.8872 3.7713-8.4052 4.9021 6.9498zm5.6688-10.343 4.6905-1.9883 0.01564 8.6595zm18-8.728c-7.3665 0-13.339-5.972-13.339-13.339 0-7.3657 5.972-13.338 13.339-13.338 7.3671 0 13.337 5.972 13.337 13.338 0 7.3665-5.9702 13.339-13.337 13.339zm13.368 6.6936 4.6987 1.9718-4.683 6.6878zm1.7249 10.87 4.8784-6.9663 3.8008 8.3917z"/>
<path d="m37.318 21.742 0.0039 2.3759 0.01161 5.2464c0.79228-0.46052 1.5295-1.027 2.1966-1.6927 1.7017-1.7017 2.7582-3.8769 3.0456-6.2291l-5.258 9e-3z"/>
<path d="m29.32 24.132 0.0099 6.3328c0.85666 0.21818 1.7469 0.3313 2.6544 0.3313 0.91522 0 1.8152-0.11624 2.6799-0.33845l-0.0098-6.3359z"/>
<path d="m23.666 26.809c0.24055 0.29822 0.49898 0.58705 0.7726 0.86156 0.67289 0.6729 1.42 1.2443 2.2221 1.7066l-0.0039-2.573z"/>
<path d="m26.649 21.468-5.2504 9e-3c0.11535 0.92238 0.35008 1.817 0.69614 2.6661l4.5578-8e-3z"/>
<path d="m21.395 18.809 5.4694-0.01 0.68452-8.386c-1.1424 0.52222-2.1949 1.2501-3.1101 2.1653-1.7021 1.7026-2.7587 3.8782-3.0439 6.2305z"/>
<path d="m33.632 9.58c-0.53965-0.0832-1.0914-0.1261-1.6472-0.1261-0.57096 0-1.1383 0.0461-1.6918 0.13414l-0.96843 11.875 5.3165-9e-3z"/>
<path d="m36.379 10.395 0.71225 8.3877 5.4811-0.01c-0.29331-2.3375-1.3498-4.5001-3.0416-6.1928-0.92551-0.92642-1.9937-1.6606-3.1516-2.185z"/>
</g>
</svg>
