<?xml version="1.0" encoding="UTF-8"?>
<svg fill="#ff0000" stroke="current" width="36pt" height="35.42pt" version="1.1" viewBox="0 0 36 35.42" xmlns="http://www.w3.org/2000/svg">
<g stroke-width=".06636">
<path d="m34.258 32.516h-2.6241l-3.718-4.6475c2.2199-0.02437 4.0194-1.8366 4.0194-4.0622v-15.097c0-2.2407-1.8234-4.0646-4.0646-4.0646h-0.58065v-2.3226h-6.3872v-2.3226h-1.1613v2.3226h-3.4839v-2.3226h-1.1613v2.3226h-6.3872v2.3226h-0.58065c-2.2412 0-4.0646 1.8238-4.0646 4.0646v15.097c0 2.2257 1.7995 4.0379 4.0192 4.0622l-3.7177 4.6475h-2.6241c-0.96508 0-1.742 0.9534-1.742 1.742v1.1613h6.9678v-1.1613c0-0.63353-0.50522-1.365-1.2025-1.6315l3.8043-4.7556h7.8497v4.6452h-1.1613c-0.96508 0-1.742 0.9534-1.742 1.742v1.1613h6.9678v-1.1613c0-0.78856-0.77688-1.742-1.742-1.742h-1.1613v-4.6452h7.8497l3.8043 4.7556c-0.69731 0.26648-1.2025 0.99799-1.2025 1.6315v1.1613h6.9678v-1.1613c0-0.78856-0.77688-1.742-1.742-1.742zm-13.936 1.742h-4.6452c0-0.18223 0.29136-0.58065 0.58065-0.58065h3.4839c0.28929 0 0.58065 0.39842 0.58065 0.58065zm10.452-15.097h-0.58065c-0.31988 0-0.58065-0.26026-0.58065-0.58065v-4.6452c0-0.32039 0.26078-0.58065 0.58065-0.58065h0.58065zm-20.903-15.678h16.258v1.1613h-16.258zm11.032 14.516c-1.6009 0-2.9033-1.3023-2.9033-2.9033 0-1.6009 1.3023-2.9033 2.9033-2.9033s2.9033 1.3023 2.9033 2.9033c0 1.6009-1.3023 2.9033-2.9033 2.9033zm-9.8711-1.1613h-5.8065v-1.1613h5.8065zm0 1.1613v0.58065c0 0.32039-0.26078 0.58065-0.58065 0.58065h-5.2259v-1.1613zm0-3.4839h-5.8065v-1.1613h5.2259c0.31988 0 0.58065 0.26026 0.58065 0.58065zm-9.8711 19.742c0-0.18223 0.29136-0.58065 0.58065-0.58065h3.4839c0.28929 0 0.58065 0.39842 0.58065 0.58065zm17.42-7.5485h-10.452c-1.6009 0-2.9033-1.3023-2.9033-2.9033v-3.4839h5.2259c0.96043 0 1.742-0.78152 1.742-1.742v-4.6452c0-0.96043-0.78152-1.742-1.742-1.742h-5.2259v-3.4839c0-1.6009 1.3023-2.9033 2.9033-2.9033h12.194v5.2723c-1.9667 0.28332-3.4839 1.9747-3.4839 4.0182s1.5172 3.7348 3.4839 4.0182v7.5949zm2.9033-7.5949c1.9667-0.28332 3.4839-1.9747 3.4839-4.0182s-1.5172-3.7348-3.4839-4.0182v-5.2722h6.3872c1.6009 0 2.9033 1.3023 2.9033 2.9033v3.4839h-0.58065c-0.96043 0-1.742 0.78152-1.742 1.742v4.6452c0 0.96043 0.78152 1.742 1.742 1.742h0.58065v3.4839c0 1.6009-1.3023 2.9033-2.9033 2.9033h-6.3872zm8.7098 15.143c0-0.18223 0.29136-0.58065 0.58065-0.58065h3.4839c0.28929 0 0.58065 0.39842 0.58065 0.58065z"/>
<path d="m11.613 6.9678h5.8065v1.1613h-5.8065z"/>
<path d="m9.2904 6.9678h1.1613v1.1613h-1.1613z"/>
<path d="m6.9678 6.9678h1.1613v1.1613h-1.1613z"/>
</g>
</svg>
