<?xml version="1.0" encoding="UTF-8"?>
<svg fill="#fff" stroke="current" width="36pt" height="53.973pt" version="1.1" viewBox="0 0 36 53.973" xmlns="http://www.w3.org/2000/svg">
<g stroke-width=".09791">
<path d="m35.963 35.202c-7.83e-4 -0.0031-3.91e-4 -0.0057-7.83e-4 -0.0088l-5.3254-24.777c-0.33733-1.5677-1.7463-2.7059-3.3504-2.7059h-1.5762v-4.2836c0-1.8894-1.5375-3.4268-3.4268-3.4268h-8.5671c-1.8894 0-3.4268 1.5375-3.4268 3.4268v4.2836h-1.5761c-1.6037 0-3.013 1.1382-3.3504 2.7067l-5.3254 24.776c-7.6497e-4 0.0031-3.8253e-4 0.0057-7.6497e-4 0.0088-0.070373 0.33542-0.040541 0.6892 0.095998 1.0146l4.0526 9.6586c0.53545 1.2759 1.7758 2.1005 3.1598 2.1005h1.3593v2.5701h-0.25242c-0.94621 0-1.7134 0.76721-1.7134 1.7134s0.76721 1.7134 1.7134 1.7134h3.9313c0.94621 0 1.7134-0.76721 1.7134-1.7134s-0.76721-1.7134-1.7134-1.7134h-0.25242v-2.5701h11.737v2.5701h-0.25242c-0.94621 0-1.7134 0.76721-1.7134 1.7134s0.76721 1.7134 1.7134 1.7134h3.9313c0.94621 0 1.7134-0.76721 1.7134-1.7134s-0.76721-1.7134-1.7134-1.7134h-0.25242v-2.5701h1.3593c1.3842 0 2.6245-0.82459 3.1602-2.1008l4.0522-9.6586c0.1373-0.32509 0.16713-0.67887 0.09676-1.0142zm-22.246-31.776h8.5671v4.2836h-8.5671zm-5.003 7.7104h18.573l4.8798 22.703h-28.333zm19.941 33.412h-21.309l-3.0551-7.282h27.42z"/>
<path d="m20.571 14.564h-5.1403c-1.8894 0-3.4268 1.5375-3.4268 3.4268v8.9955c0 1.8894 1.5375 3.4268 3.4268 3.4268h5.1403c1.8894 0 3.4268-1.5375 3.4268-3.4268v-8.9955c0-1.8894-1.5375-3.4268-3.4268-3.4268zm-5.1403 12.423v-8.9955h5.1403l0.0019 8.9955z"/>
</g>
</svg>
