<?xml version="1.0" encoding="UTF-8" standalone="no"?>
<svg
   width="36.000004pt"
   height="33.527912pt"
   version="1.1"
   viewBox="0 0 36.000004 33.527912"
   id="svg517"
   sodipodi:docname="noun-duck.svg"
   inkscape:version="1.1.2 (b8e25be833, 2022-02-05)"
   inkscape:export-filename="C:\Users\hadih\Downloads\noun-duck-1087596.png"
   inkscape:export-xdpi="500"
   inkscape:export-ydpi="500"
   xmlns:inkscape="http://www.inkscape.org/namespaces/inkscape"
   xmlns:sodipodi="http://sodipodi.sourceforge.net/DTD/sodipodi-0.dtd"
   xmlns="http://www.w3.org/2000/svg"
   xmlns:svg="http://www.w3.org/2000/svg">
  <sodipodi:namedview
     id="namedview519"
     pagecolor="#505050"
     bordercolor="#eeeeee"
     borderopacity="1"
     inkscape:pageshadow="0"
     inkscape:pageopacity="0"
     inkscape:pagecheckerboard="0"
     inkscape:document-units="pt"
     showgrid="false"
     inkscape:zoom="0.77035714"
     inkscape:cx="469.26287"
     inkscape:cy="469.91191"
     inkscape:window-width="2560"
     inkscape:window-height="1494"
     inkscape:window-x="-11"
     inkscape:window-y="-11"
     inkscape:window-maximized="1"
     inkscape:current-layer="g515" />
  <defs
     id="defs485">
    <symbol
       id="l"
       overflow="visible">
      <path
         d="m 37.516,-2.25 c -1.9297,1.0117 -3.9453,1.7734 -6.0469,2.2812 -2.0938,0.50781 -4.2812,0.76562 -6.5625,0.76562 -6.793,0 -12.18,-1.8984 -16.156,-5.7031 -3.9688,-3.8008 -5.9531,-8.957 -5.9531,-15.469 0,-6.5195 1.9844,-11.68 5.9531,-15.484 3.9766,-3.8008 9.3633,-5.7031 16.156,-5.7031 2.2812,0 4.4688,0.25781 6.5625,0.76562 2.1016,0.51172 4.1172,1.2656 6.0469,2.2656 v 8.4531 c -1.9492,-1.332 -3.8711,-2.3047 -5.7656,-2.9219 -1.8984,-0.625 -3.8906,-0.9375 -5.9844,-0.9375 -3.7617,0 -6.7188,1.2031 -8.875,3.6094 -2.1484,2.4062 -3.2188,5.7266 -3.2188,9.9531 0,4.2109 1.0703,7.5156 3.2188,9.9219 2.1562,2.4062 5.1133,3.6094 8.875,3.6094 2.0938,0 4.0859,-0.30469 5.9844,-0.92188 1.8945,-0.625 3.8164,-1.5977 5.7656,-2.9219 z"
         id="path449" />
    </symbol>
    <symbol
       id="h"
       overflow="visible">
      <path
         d="m 27.453,-22.281 c -0.85547,-0.40625 -1.7109,-0.70312 -2.5625,-0.89062 -0.84375,-0.19531 -1.6953,-0.29688 -2.5469,-0.29688 -2.5234,0 -4.4609,0.80859 -5.8125,2.4219 -1.3555,1.6172 -2.0312,3.9297 -2.0312,6.9375 V -1e-4 H 4.703 v -30.625 h 9.7969 v 5.0312 c 1.25,-2.0078 2.6914,-3.4727 4.3281,-4.3906 1.6328,-0.91406 3.5859,-1.375 5.8594,-1.375 0.33203,0 0.6875,0.01563 1.0625,0.04687 0.38281,0.02344 0.94141,0.07813 1.6719,0.17188 z"
         id="path452" />
    </symbol>
    <symbol
       id="a"
       overflow="visible">
      <path
         d="m 35.281,-15.391 v 2.7812 H 12.39 c 0.23828,2.3047 1.0664,4.0273 2.4844,5.1719 1.4258,1.1484 3.4141,1.7188 5.9688,1.7188 2.0508,0 4.1562,-0.30078 6.3125,-0.90625 2.1641,-0.61328 4.3906,-1.5391 6.6719,-2.7812 v 7.5469 c -2.3125,0.875 -4.6328,1.5391 -6.9531,1.9844 -2.3125,0.44531 -4.625,0.67188 -6.9375,0.67188 -5.543,0 -9.8516,-1.4062 -12.922,-4.2188 -3.0742,-2.8203 -4.6094,-6.7734 -4.6094,-11.859 0,-5 1.5039,-8.9258 4.5156,-11.781 3.0195,-2.8633 7.1758,-4.2969 12.469,-4.2969 4.8125,0 8.6602,1.4492 11.547,4.3438 2.8945,2.8984 4.3438,6.7734 4.3438,11.625 z m -10.062,-3.2656 c 0,-1.8516 -0.54688,-3.3477 -1.6406,-4.4844 -1.0859,-1.1445 -2.5,-1.7188 -4.25,-1.7188 -1.8984,0 -3.4375,0.53906 -4.625,1.6094 -1.1797,1.0625 -1.9141,2.5938 -2.2031,4.5938 z"
         id="path455" />
    </symbol>
    <symbol
       id="g"
       overflow="visible">
      <path
         d="m 18.438,-13.781 c -2.043,0 -3.5781,0.35156 -4.6094,1.0469 -1.0312,0.6875 -1.5469,1.7031 -1.5469,3.0469 0,1.2422 0.41016,2.2148 1.2344,2.9219 0.83203,0.69922 1.9883,1.0469 3.4688,1.0469 1.8438,0 3.3906,-0.66016 4.6406,-1.9844 1.2578,-1.3203 1.8906,-2.9727 1.8906,-4.9531 v -1.125 z m 14.953,-3.6875 V 5e-4 h -9.875 v -4.5469 c -1.3125,1.8672 -2.793,3.2266 -4.4375,4.0781 -1.6367,0.84375 -3.6328,1.2656 -5.9844,1.2656 -3.168,0 -5.7422,-0.92578 -7.7188,-2.7812 -1.9805,-1.8516 -2.9688,-4.2539 -2.9688,-7.2031 0,-3.5938 1.2344,-6.2266 3.7031,-7.9062 2.4688,-1.6758 6.3477,-2.5156 11.641,-2.5156 h 5.7656 v -0.76562 c 0,-1.5508 -0.60938,-2.6875 -1.8281,-3.4062 -1.21872,-0.7187 -3.125,-1.0781 -5.7188,-1.0781 -2.0938,0 -4.0469,0.21484 -5.8594,0.64062 -1.8047,0.41797 -3.4766,1.043 -5.0156,1.875 v -7.4688 c 2.0938,-0.50781 4.1953,-0.89453 6.3125,-1.1562 2.1133,-0.25781 4.2266,-0.39062 6.3438,-0.39062 5.5195,0 9.5039,1.0898 11.953,3.2656 2.457,2.1797 3.6875,5.7188 3.6875,10.625 z"
         id="path458" />
    </symbol>
    <symbol
       id="f"
       overflow="visible">
      <path
         d="m 15.391,-39.328 v 8.7031 h 10.094 v 7 H 15.391 v 12.984 c 0,1.4297 0.28125,2.3906 0.84375,2.8906 0.57031,0.5 1.6953,0.75 3.375,0.75 h 5.0312 v 7 h -8.3906 c -3.8672,0 -6.6055,-0.80469 -8.2188,-2.4219 -1.6172,-1.6133 -2.4219,-4.3516 -2.4219,-8.2188 v -12.984 h -4.875 v -7 h 4.875 v -8.7031 z"
         id="path461" />
    </symbol>
    <symbol
       id="e"
       overflow="visible">
      <path
         d="m 25.547,-26.141 v -16.406 h 9.8438 V 0 H 25.547 v -4.4375 c -1.3555,1.8125 -2.8438,3.1406 -4.4688,3.9844 -1.6172,0.83203 -3.4922,1.25 -5.625,1.25 -3.7734,0 -6.8711,-1.5 -9.2969,-4.5 -2.4297,-3 -3.6406,-6.8594 -3.6406,-11.578 0,-4.7266 1.2109,-8.5859 3.6406,-11.578 2.4258,-3 5.5234,-4.5 9.2969,-4.5 2.1133,0 3.9844,0.42188 5.6094,1.2656 1.6328,0.84375 3.1289,2.1641 4.4844,3.9531 z m -6.4531,19.828 c 2.0938,0 3.6914,-0.76562 4.7969,-2.2969 1.1016,-1.5312 1.6562,-3.7539 1.6562,-6.6719 0,-2.9141 -0.55469,-5.1406 -1.6562,-6.6719 -1.1055,-1.5312 -2.7031,-2.2969 -4.7969,-2.2969 -2.0859,0 -3.6797,0.76562 -4.7812,2.2969 -1.1055,1.5312 -1.6562,3.7578 -1.6562,6.6719 0,2.918 0.55078,5.1406 1.6562,6.6719 1.1016,1.5312 2.6953,2.2969 4.7812,2.2969 z"
         id="path464" />
    </symbol>
    <symbol
       id="d"
       overflow="visible">
      <path
         d="m 21,-6.3125 c 2.0938,0 3.6914,-0.76562 4.7969,-2.2969 1.1016,-1.5312 1.6562,-3.7539 1.6562,-6.6719 0,-2.9141 -0.55469,-5.1406 -1.6562,-6.6719 -1.1055,-1.5312 -2.7031,-2.2969 -4.7969,-2.2969 -2.0938,0 -3.7031,0.77344 -4.8281,2.3125 -1.1172,1.5312 -1.6719,3.75 -1.6719,6.6562 0,2.8984 0.55469,5.1172 1.6719,6.6562 1.125,1.543 2.7344,2.3125 4.8281,2.3125 z m -6.5,-19.828 c 1.3438,-1.7891 2.832,-3.1094 4.4688,-3.9531 1.6445,-0.84375 3.5352,-1.2656 5.6719,-1.2656 3.7695,0 6.8672,1.5 9.2969,4.5 2.4258,2.9922 3.6406,6.8516 3.6406,11.578 0,4.7188 -1.2148,8.5781 -3.6406,11.578 -2.4297,3 -5.5273,4.5 -9.2969,4.5 -2.1367,0 -4.0273,-0.42188 -5.6719,-1.2656 C 17.3321,-1.32036 15.8438,-2.6446 14.5,-4.4376 V -1e-4 H 4.7031 v -42.547 H 14.5 Z"
         id="path467" />
    </symbol>
    <symbol
       id="c"
       overflow="visible">
      <path
         d="m 0.6875,-30.625 h 9.7812 l 8.2344,20.781 7,-20.781 H 35.5 L 22.609,2.906 c -1.293,3.4062 -2.8047,5.7852 -4.5312,7.1406 -1.7188,1.3633 -3.9922,2.0469 -6.8125,2.0469 H 5.6091 V 5.656 h 3.0625 c 1.6562,0 2.8594,-0.26562 3.6094,-0.79688 0.75781,-0.52344 1.3516,-1.4648 1.7812,-2.8281 l 0.26562,-0.85938 z"
         id="path470" />
    </symbol>
    <symbol
       id="b"
       overflow="visible">
      <path
         d="m 5.1406,-40.828 h 10.531 v 14.906 l 15.172,-14.906 h 12.219 L 23.4066,-21.5 45.0946,0 H 31.9066 L 15.6726,-16.078 V 0 H 5.1416 Z"
         id="path473" />
    </symbol>
    <symbol
       id="k"
       overflow="visible">
      <path
         d="M 4.7031,-30.625 H 14.5 V 0 H 4.7031 Z m 0,-11.922 H 14.5 v 7.9844 H 4.7031 Z"
         id="path476" />
    </symbol>
    <symbol
       id="j"
       overflow="visible">
      <path
         d="m 29.453,-29.672 v 7.9844 c -1.3359,-0.90625 -2.6719,-1.5781 -4.0156,-2.0156 -1.3359,-0.4375 -2.7188,-0.65625 -4.1562,-0.65625 -2.7422,0 -4.8711,0.79688 -6.3906,2.3906 -1.5234,1.5938 -2.2812,3.8242 -2.2812,6.6875 0,2.8555 0.75781,5.0859 2.2812,6.6875 1.5195,1.5938 3.6484,2.3906 6.3906,2.3906 1.5312,0 2.9844,-0.22656 4.3594,-0.6875 1.375,-0.45703 2.6445,-1.1328 3.8125,-2.0312 v 8.0156 c -1.5312,0.5625 -3.0898,0.98438 -4.6719,1.2656 -1.5742,0.28906 -3.1523,0.4375 -4.7344,0.4375 -5.5234,0 -9.8438,-1.4141 -12.969,-4.25 -3.1172,-2.8438 -4.6719,-6.7852 -4.6719,-11.828 0,-5.0508 1.5547,-8.9922 4.6719,-11.828 3.125,-2.832 7.4453,-4.25 12.969,-4.25 1.6016,0 3.1797,0.14062 4.7344,0.42188 1.5625,0.28125 3.1172,0.70312 4.6719,1.2656 z"
         id="path479" />
    </symbol>
    <symbol
       id="i"
       overflow="visible">
      <path
         d="M 4.7031,-42.547 H 14.5 v 23.156 L 25.766,-30.625 H 37.141 L 22.172,-16.578 38.313,0 H 26.438 L 14.5,-12.766 V 0 H 4.7031 Z"
         id="path482" />
    </symbol>
  </defs>
  <g
     id="g515"
     transform="translate(1.6794604,1.6545567)">
    <path
       d="M 32.512077,10.249259 C 27.184973,14.799661 19.32298,13.56062 18.315072,13.157687 17.306933,12.755026 17.27769,11.861989 18.257805,10.36471 19.237002,8.8674315 21.106598,0.89189581 13.909976,-0.54742837 6.7118285,-1.9874396 5.0426705,3.9722022 4.8395617,5.3544112 1.4419931,7.0828988 -0.65934383,6.6518647 -0.65934383,6.6518647 -0.89020072,7.3420608 -0.89020072,8.6386666 0.20440341,9.1284188 2.7366976,10.510322 5.9341351,10.278504 5.9341351,10.278504 l 1.0081382,1.268209 c 1.0081377,1.265535 -0.335252,2.22595 -0.335252,2.22595 0,0 -4.1476971,2.456854 -4.0707296,7.487997 0.076953,5.030306 6.6799913,9.52092 14.7421913,9.709522 C 37.43513,31.470676 33.376006,12.667476 32.512412,10.248495 Z M 8.6979429,5.9595387 c -0.6362039,0 -1.1510012,-0.5148123 -1.1510012,-1.1510013 0,-0.6379987 0.5148123,-1.1528339 1.1510012,-1.1528339 0.6362045,0 1.1528336,0.5148123 1.1528336,1.1528339 0,0.636204 -0.5165986,1.1510013 -1.1528336,1.1510013 z"
       id="path487"
       style="fill:#ffb948;fill-opacity:1;stroke:#000000;stroke-width:1.78684;stroke-miterlimit:4;stroke-dasharray:none;stroke-opacity:1" />
  </g>
</svg>
